<?xml version="1.0" standalone="no"?>
<!DOCTYPE svg PUBLIC "-//W3C//DTD SVG 20010904//EN"
 "http://www.w3.org/TR/2001/REC-SVG-20010904/DTD/svg10.dtd">
<svg version="1.0" xmlns="http://www.w3.org/2000/svg"
 width="500.000000pt" height="500.000000pt" viewBox="0 0 500.000000 500.000000"
 preserveAspectRatio="xMidYMid meet">

<g transform="translate(0.000000,500.000000) scale(0.100000,-0.100000)"
fill="#000000" stroke="none">
<path d="M0 2500 l0 -2500 2500 0 2500 0 0 2500 0 2500 -2500 0 -2500 0 0
-2500z m3205 1392 c108 -26 247 -92 333 -157 282 -213 370 -662 195 -996 -97
-187 -279 -327 -508 -391 -77 -22 -97 -23 -592 -26 l-512 -3 -3 -497 -3 -497
-24 -53 c-30 -67 -104 -134 -179 -162 -73 -28 -226 -38 -314 -21 -87 17 -172
65 -214 120 -68 88 -65 23 -62 1312 3 1160 3 1164 24 1210 48 103 137 164 261
179 37 4 392 7 788 6 700 -3 722 -3 810 -24z"/>
<path d="M2138 3839 c-17 -9 -18 -55 -18 -729 l0 -720 209 0 c240 0 290 7 386
54 178 88 283 281 304 561 16 210 -15 417 -83 560 -66 140 -202 248 -345 275
-71 13 -431 13 -453 -1z"/>
</g>
</svg>
